<?xml version="1.0" standalone="no"?>
<!DOCTYPE svg PUBLIC "-//W3C//DTD SVG 20010904//EN"
 "http://www.w3.org/TR/2001/REC-SVG-20010904/DTD/svg10.dtd">
<svg version="1.0" xmlns="http://www.w3.org/2000/svg"
 width="512.000000pt" height="512.000000pt" viewBox="0 0 512.000000 512.000000"
 preserveAspectRatio="xMidYMid meet">

<g transform="translate(0.000000,512.000000) scale(0.100000,-0.100000)"
fill="#000000" stroke="none">
<path d="M1758 4991 c-71 -28 -112 -57 -165 -115 -63 -69 -113 -165 -178 -341
-68 -185 -101 -246 -140 -257 -16 -5 -117 -13 -223 -18 -106 -6 -228 -17 -270
-26 -199 -41 -322 -152 -358 -325 -24 -113 -11 -212 61 -459 18 -63 36 -141
40 -173 7 -57 7 -59 -26 -94 -19 -19 -90 -79 -159 -133 -165 -128 -252 -221
-299 -319 -34 -71 -36 -82 -36 -171 0 -89 2 -100 36 -171 47 -98 134 -191 299
-319 69 -54 140 -114 159 -133 32 -34 33 -37 26 -92 -4 -32 -27 -127 -51 -212
-24 -85 -49 -195 -55 -243 -34 -265 99 -450 364 -504 43 -9 164 -20 270 -26
106 -5 206 -13 222 -18 39 -11 72 -72 140 -257 96 -260 174 -374 303 -437 55
-28 80 -34 149 -37 138 -5 241 35 446 175 119 82 215 134 247 134 32 0 128
-52 247 -134 207 -141 310 -181 448 -174 68 4 95 10 148 36 127 63 207 178
302 437 68 185 101 246 140 257 17 5 117 13 223 18 106 6 228 17 270 26 200
41 321 151 358 325 24 113 11 212 -61 459 -18 63 -36 141 -40 173 -7 58 -7 59
31 99 22 21 82 72 134 111 52 39 136 112 187 162 75 75 99 106 130 171 36 74
38 85 38 174 0 89 -2 100 -36 171 -47 98 -134 191 -299 319 -69 54 -140 114
-159 134 l-35 36 13 80 c6 44 21 105 31 135 31 89 68 254 75 330 17 186 -70
349 -226 423 -91 43 -191 61 -411 72 -106 5 -206 13 -223 18 -39 11 -72 72
-140 257 -96 260 -174 374 -303 437 -55 28 -80 34 -149 37 -138 5 -241 -35
-446 -175 -119 -82 -215 -134 -247 -134 -31 0 -130 53 -233 124 -134 93 -204
132 -290 161 -94 31 -207 34 -279 6z m1665 -1692 c47 -13 109 -67 132 -115 23
-48 21 -133 -4 -180 -11 -23 -258 -276 -588 -605 -539 -537 -570 -567 -616
-578 -59 -14 -109 -7 -162 24 -63 37 -601 582 -621 630 -60 143 39 296 192
296 89 0 121 -23 339 -241 l200 -200 480 479 c365 363 488 480 515 488 47 15
87 15 133 2z"/>
</g>
</svg>
