<?xml version="1.0" standalone="no"?>
<!DOCTYPE svg PUBLIC "-//W3C//DTD SVG 20010904//EN"
 "http://www.w3.org/TR/2001/REC-SVG-20010904/DTD/svg10.dtd">
<svg version="1.0" xmlns="http://www.w3.org/2000/svg"
 width="512.000000pt" height="512.000000pt" viewBox="0 0 512.000000 512.000000"
 preserveAspectRatio="xMidYMid meet">

<g transform="translate(0.000000,512.000000) scale(0.100000,-0.100000)"
fill="#000000" stroke="none">
<path d="M2412 5105 c-86 -39 -484 -289 -504 -317 -28 -40 -36 -124 -15 -164
24 -46 48 -64 297 -213 219 -132 238 -141 285 -141 53 0 103 23 136 63 26 32
39 95 39 189 l0 84 88 -8 c811 -70 1505 -615 1762 -1386 243 -727 65 -1520
-465 -2070 -152 -159 -315 -282 -507 -386 -101 -55 -112 -66 -112 -113 0 -42
40 -83 81 -83 50 0 280 135 433 254 92 71 250 225 338 331 369 440 557 1048
501 1621 -51 532 -286 1017 -670 1389 -239 231 -514 399 -824 504 -187 63
-423 111 -551 111 -27 0 -54 4 -60 8 -7 4 -13 51 -16 112 -5 119 -18 154 -73
196 -44 33 -114 41 -163 19z m61 -247 c10 -118 9 -420 -1 -416 -53 22 -418
245 -412 252 10 10 392 244 401 245 3 1 9 -36 12 -81z"/>
<path d="M1512 4515 c-251 -135 -471 -315 -660 -540 -340 -405 -531 -965 -509
-1490 24 -562 237 -1064 619 -1460 186 -194 379 -335 623 -455 233 -115 528
-199 756 -215 138 -10 126 1 131 -122 5 -122 18 -157 73 -199 45 -34 107 -42
159 -20 81 34 486 288 508 318 28 40 36 124 15 164 -24 46 -49 64 -296 213
-220 132 -238 141 -285 141 -54 0 -104 -23 -137 -63 -24 -30 -39 -103 -39
-195 l0 -78 -92 8 c-865 76 -1589 694 -1803 1540 -171 673 17 1396 496 1902
147 156 332 298 521 400 101 55 112 66 112 113 0 43 -40 83 -82 83 -15 0 -64
-20 -110 -45z m1351 -3960 c123 -72 202 -124 197 -129 -5 -5 -98 -64 -207
-132 l-198 -122 -6 71 c-10 113 -10 439 0 435 5 -1 101 -57 214 -123z"/>
<path d="M1344 3822 c-95 -33 -176 -110 -211 -200 -17 -44 -18 -101 -18 -897
l0 -850 28 -57 c40 -82 120 -152 204 -178 53 -16 93 -20 214 -20 l149 0 0
-144 c0 -151 7 -185 43 -224 50 -54 141 -71 203 -39 16 8 132 103 257 211
l229 196 633 0 c607 0 636 1 698 20 84 26 164 96 204 178 l28 57 0 855 0 855
-26 55 c-33 70 -95 132 -167 167 l-57 28 -1180 2 c-1105 2 -1183 1 -1231 -15z
m2383 -163 c38 -14 83 -57 99 -96 12 -27 14 -175 14 -832 0 -542 -3 -809 -11
-828 -13 -35 -45 -70 -84 -91 -27 -15 -101 -18 -690 -22 -605 -5 -663 -6 -692
-23 -18 -9 -134 -103 -258 -207 l-225 -190 0 134 c0 144 -9 186 -49 230 -45
49 -75 56 -248 56 -132 0 -165 3 -198 19 -46 21 -79 54 -94 94 -15 39 -15
1615 0 1654 14 37 57 82 94 99 24 11 240 13 1172 14 783 0 1151 -3 1170 -11z"/>
<path d="M1670 3317 c-55 -28 -64 -94 -18 -137 22 -20 32 -20 908 -20 876 0
886 0 908 20 46 43 37 109 -18 137 -36 18 -1744 18 -1780 0z"/>
<path d="M1646 2869 c-34 -40 -33 -74 3 -110 l29 -29 882 0 882 0 29 29 c38
38 38 74 0 112 l-29 29 -885 0 -885 0 -26 -31z"/>
<path d="M1653 2455 c-27 -19 -37 -63 -23 -99 21 -56 33 -57 566 -54 l486 3
24 28 c31 37 31 81 -1 112 l-24 25 -503 0 c-432 0 -507 -2 -525 -15z"/>
</g>
</svg>
